<?xml version="1.0" encoding="UTF-8"?>
<svg id="Capa_2" xmlns="http://www.w3.org/2000/svg" viewBox="0 0 282.72 255.99">
  <defs>
    <style>
      .cls-1 {
        stroke-width: 2px;
      }

      .cls-1, .cls-2 {
        fill: #161616;
        stroke: #fff;
        stroke-miterlimit: 10;
      }

      .cls-3 {
        fill: #fff;
      }

      .cls-2 {
        stroke-width: 3px;
      }

      .cls-4 {
        fill: #039ee1;
      }
    </style>
  </defs>
  <g id="Capa_1-2" data-name="Capa_1">
    <path class="cls-1" d="M12.87,128.25C12.7,58.02,69,1.28,139.12,1c69.76-.28,126.63,56.57,126.83,126.76.19,70.07-56.45,127.1-126.36,127.23-69.98.13-126.56-56.46-126.72-126.75Z"/>
    <path class="cls-2" d="M27.84,128.65c-.14-61.85,49.43-111.82,111.19-112.06,61.43-.24,111.52,49.82,111.69,111.64.17,61.71-49.71,111.93-111.28,112.05-61.63.11-111.45-49.72-111.6-111.62Z"/>
    <g>
      <path class="cls-4" d="M25.78,215.5c11.23,5.92,23.19,8.82,35.9,8.46,13.93-.39,26.78-4.57,38.96-11.16,13.54-7.33,24.34-17.93,34.78-28.98,7.82-8.27,15.6-16.61,24.68-23.57,10.46-8.02,22-13.41,35.33-14.3,10.47-.7,20.49,1.33,30.08,5.49,14.42,6.24,26.04,16.12,36.05,28.03.56.66,1.41,1.12,1.6,2.2-4.36-2.22-8.4-4.93-12.87-6.77-12.37-5.09-25.14-5.88-38.17-3.34-14.76,2.87-27.49,9.94-39.19,19.13-10.36,8.15-18.94,18.06-27.86,27.65-7.84,8.43-16.3,16.11-26.77,21.24-13.16,6.45-27.04,8.08-41.31,5.44-15.51-2.87-28.99-10.15-41.06-20.18-3.53-2.94-7.01-5.93-10.16-9.34Z"/>
      <path class="cls-4" d="M97.22,109.03c-8.49-3.06-17.04-4.89-26.01-4.81-30.1.27-55.75,22.22-59.9,51.98-2.72,19.49,3.61,36.22,17.36,50.2.43.44.88.87,1.31,1.31.09.09.14.22.32.54-3.29-1.54-6.06-3.51-8.66-5.72C6.72,189.8-1.11,173.63.13,154c1.51-23.96,13.91-41.18,35.63-51.02,19.09-8.65,38.17-7.27,56.56,2.81,1.71.94,3.28,2.15,4.91,3.24Z"/>
      <path class="cls-4" d="M282.72,215.6c-20.06-18.19-43.77-25.33-70.72-22.02-13.21,1.62-25.61,5.95-37.55,11.68-.86.41-1.72.82-2.68,1.1,1.78-2.2,4-3.92,6.2-5.63,10.38-8.04,21.53-14.68,34.25-18.34,22.69-6.54,42.09-1.09,58.18,16.16,4.87,5.22,9.08,10.92,12.33,17.06Z"/>
      <path class="cls-4" d="M115.3,188.93c-9.89,16.18-24.36,25.36-43.37,25.98-21.97.72-38.98-8.71-49.12-28.35-9.24-17.91-6.95-35.52,4.34-52.05-5.27,12.03-6.35,24.36-2.32,36.94,4.05,12.64,12.07,22.17,23.51,28.8,20.26,11.74,48.76,9.22,66.95-11.32Z"/>
    </g>
    <g>
      <path class="cls-3" d="M184.72,146.67c-3.94,7.77-9.27,15.02-14.98,21.51-1.8,2.04-4.26,2.8-7.05,2.33-9.62-1.63-16.36-11.07-14.62-20.68,1.49-8.24,5.46-15.5,9.27-22.82,1.14-2.2,2.74-4.27,3.04-7.54-3.43,1.72-5.78,3.55-7.48,6.37-4.4,7.29-8.99,14.46-13.44,21.72-2.93,4.78-4.53,10.1-5.92,15.47-1.22,4.71-2.81,5.72-7.24,3.92-8.8-3.57-14.83-8.71-9.98-21.25.23-.6,1.08-3.28,1.41-4.05l1.88-4.65c.17-.29.32-.62.45-.96.23-.61.42-1.26.65-1.78,6.6-15.3,13.36-30.52,21.84-44.9,4.3-7.29,7.03-7.53,13.08-1.27,5.55,5.74,5.96,8.44,2.27,15.34-7.18,13.4-14.86,26.53-21.33,40.29-.56,1.19-2.45,2.42-.68,4.21,6.72-10.29,11.86-21.54,20.24-30.62,7.45-8.08,18.98-5.58,22.98,4.88,1.04,2.73.08,5.14-.92,7.48-3.23,7.58-6.69,15.07-9.88,22.66-1.18,2.82-1.97,5.82-2.76,8.78-.4,1.5-1.12,3.49.51,4.45,1.72,1.01,2.96-.71,4.01-1.87,4.67-5.16,8.39-10.93,11.66-17.06"/>
      <path class="cls-3" d="M108.12,83.45c-6.82,1.55-12.1,2.86-17.44,3.94-10.18,2.05-17.04-4.31-15.78-14.67.27-2.19.34-4.93,4.05-2.17,3.07,2.29,7.17,1.51,10.85,1.42,15.99-.43,31.99-1.02,47.98-1.4,5.66-.14,11.37.1,16.59,2.69,6.09,3.03,7.52,8.56,3.31,13.49,0-4.3-2.96-5.12-6.1-5.63-6.27-1.02-12.58-.47-18.88-.43-2.98.02-3.06,2.35-3.79,4.22-8.12,20.8-17.01,41.22-29.44,59.91-3.86,5.81-8.05,11.29-13.46,15.81-5.6,4.67-11.61,5.26-18.09,2.33-10.13-4.58-17.18-12.41-22.67-21.81-2.11-3.61-.63-6.87,1.41-9.95.62-.93,1.42-1.9,2.77-1.27,1.42.67.79,1.65.54,2.82-1.72,7.99,6.36,15.22,14.41,12.87,5.11-1.49,9.14-4.77,12.7-8.6,7.66-8.25,13.41-17.79,18.45-27.77,4.06-8.05,7.92-16.2,12.59-25.78Z"/>
      <g>
        <path class="cls-3" d="M222.86,137.78c-2.18-2.45-10.62,3.73-14.1.47-.19-.18-.32-.38-.6-.75-7.37-9.74-2.68-20.04,6.7-21.59,1.74-.29,3.62-.87,2.9-2.92-1.51-4.27-4.6-7.38-8.66-9.38-3.6-1.78-7.03-1.01-9.91,1.56-5.89,5.26-8.84,11.86-8.23,19.83.14,1.79.4,3.39-.58,5.12-2.21,3.91-4.21,7.94-6.21,11.96l-2.44,4.59c.17.49,2.02.31,2.53.89,1.32-2.59,2.32-4.89,3.61-7,1.54-2.51,2.04-7.01,4.88-6.95,2.25.04,2.56,4.69,4.02,7.13,1.54,2.58,1.07,4.1-1.74,5.64-5.12,2.82-9.75,6.42-13.1,11.34-3.11,4.56-2.19,7.44,2.88,9.38,3.49,1.33,7.15,2.14,10.87,2.32,14.56.7,23.21-11.88,17.23-24.97-.38-.82-1.54-1.96-.58-2.55.64-.39,6.19-3.64,9.29-1.23.51.4.82.85,1.14.74.63-.22,1.02-2.58.09-3.62Z"/>
        <path class="cls-4" d="M183.8,161.14c4.27-5.76,8.96-10.19,14.7-13.71,1.42,7.68-6.4,15.16-14.7,13.71Z"/>
      </g>
    </g>
  </g>
</svg>